# xmcd
#
# Track frame offsets:
#	180
#	17943
#	35305
#	65056
#	80233
#	99243
#	118870
#	144252
#	161472
#	177888
#	196368
#	223703
#	255503
#
# Disc length: 3627 seconds
#
# Revision: 1
# Processed by: cddbd v1.4PL0 Copyright (c) Steve Scherf et al.
# Submitted via: audiograbber 1.80
#
DISCID=b40e290d
DTITLE=Saure Gummern - Nei Poor schuh
DYEAR=1900
DGENRE=
TTITLE0=Oodewald
TTITLE1=Awwer Isch Schwitz
TTITLE2=Nei Poor Schuh 
TTITLE3=Klaastadt-Torero
TTITLE4=En Klaane, Rode Gockel
TTITLE5=Albino Blues
TTITLE6=Schlooftablette Blues
TTITLE7=Grufti Blues
TTITLE8=Kaff Mit (K)aaner Kuh
TTITLE9=Elefande
TTITLE10=Die Ballad Vun De Späde, Awwer Heftische Entwicklung Vum Willibald Sch
TTITLE10=midt
TTITLE11=Fett Fraa
TTITLE12=Gummernsalad
EXTD=
EXTT0=
EXTT1=
EXTT2=
EXTT3=
EXTT4=
EXTT5=
EXTT6=
EXTT7=
EXTT8=
EXTT9=
EXTT10=
EXTT11=
EXTT12=
PLAYORDER=
